<?xml version="1.0" encoding="utf-8"?>
<!-- Generator: Adobe Illustrator 24.2.3, SVG Export Plug-In . SVG Version: 6.00 Build 0)  -->
<svg version="1.1" id="Layer_1" xmlns="http://www.w3.org/2000/svg" xmlns:xlink="http://www.w3.org/1999/xlink" x="0px" y="0px"
	 viewBox="0 0 144.1 42.9" style="enable-background:new 0 0 144.1 42.9;" xml:space="preserve">
<style type="text/css">
	.st0{fill:#FDB515;}
	.st1{fill:#010101;}
	.st2{fill:#FFFFFF;}
</style>
<g>
	<path class="st0" d="M123.1,41.7H21c-11.2,0-20.2-9.1-20.2-20.2v0C0.8,10.3,9.9,1.3,21,1.3h102c11.2,0,20.2,9.1,20.2,20.2v0
		C143.3,32.6,134.3,41.7,123.1,41.7z"/>
	<g>
		<g>
			<path class="st1" d="M21.6,18.1v-0.5c0-0.9-0.1-1.6-0.4-2c-0.3-0.4-0.7-0.6-1.3-0.6c-0.6,0-1.1,0.2-1.4,0.5
				c-0.3,0.4-0.5,0.9-0.5,1.6c0,0.6,0.2,1,0.6,1.4c0.4,0.4,1,0.8,1.9,1.2c1.8,0.9,3.1,1.7,3.8,2.5c0.7,0.8,1.1,1.8,1.1,3
				c0,1.8-0.5,3.1-1.4,4c-0.9,0.9-2.3,1.3-4.2,1.3c-2,0-3.5-0.4-4.3-1.2c-0.8-0.8-1.3-2.1-1.3-3.9v-0.2v-0.5h3.6v0.5
				c0,0.9,0.1,1.5,0.5,1.9c0.3,0.4,0.8,0.6,1.5,0.6c0.7,0,1.2-0.2,1.5-0.6c0.3-0.4,0.5-1,0.5-1.8c0-0.6-0.2-1.1-0.6-1.5
				c-0.4-0.4-1.1-0.9-2.1-1.3c-1.7-0.8-3-1.6-3.7-2.4c-0.7-0.8-1-1.8-1-2.9c0-1.7,0.5-3,1.4-3.9c0.9-0.9,2.3-1.3,4.2-1.3
				c1.9,0,3.3,0.4,4.1,1.2c0.7,0.8,1.1,2,1.1,3.7l0,0.4v0.5H21.6z"/>
			<path class="st1" d="M32.3,30.4h-1.8h-1.8V12.5h1.8h1.8v8.2h0l3.9-8.2h1.9h2l-3.9,7.9l4,10h-2h-2l-3.9-9.7h0V30.4z"/>
			<path class="st1" d="M42.3,12.5h1.8h1.8v17.9h-1.8h-1.8V12.5z"/>
			<path class="st1" d="M49,12.5h1.8h3.6c1.9,0,3.3,0.4,4.2,1.2c0.8,0.8,1.2,2.2,1.2,4.1c0,2.2-0.4,3.6-1.3,4.4
				c-0.8,0.7-2.5,1.1-4.9,1.1h-1v7.1h-1.8H49V12.5z M52.7,20.6h1c1,0,1.6-0.2,2-0.5c0.3-0.4,0.5-1.1,0.5-2.2c0-1-0.2-1.7-0.5-2.1
				c-0.3-0.4-1-0.6-1.9-0.6h-1V20.6z"/>
			<path class="st1" d="M71.6,12.5h2.1h2.2L80,30.4h-1.8h-1.8l-0.7-3.9h-3.9l-0.7,3.9h-1.8h-1.8L71.6,12.5z M72.3,23.9h2.9l-1.5-8h0
				L72.3,23.9z"/>
			<path class="st1" d="M82.7,12.5h1.8h3c2.3,0,3.9,0.5,4.9,1.4c1,0.9,1.5,2.4,1.5,4.6v5c0,2.7-0.4,4.5-1.3,5.5
				c-0.9,1-2.5,1.5-4.9,1.5h-3.2h-1.8V12.5z M86.4,27.7h1c1.1,0,1.9-0.2,2.3-0.7c0.4-0.5,0.6-1.4,0.6-2.7v-5.9c0-1.2-0.2-2-0.7-2.5
				c-0.4-0.5-1.3-0.7-2.4-0.7h-0.8V27.7z"/>
		</g>
		<g>
			<polygon class="st2" points="124.4,21.5 104.8,10.1 104.8,32.8 			"/>
			<rect x="127.6" y="10.1" class="st2" width="2.3" height="22.7"/>
		</g>
	</g>
</g>
</svg>
